<?xml version="1.0" encoding="utf-8"?>
<!-- Generator: Adobe Illustrator 15.1.0, SVG Export Plug-In . SVG Version: 6.00 Build 0)  -->
<!DOCTYPE svg PUBLIC "-//W3C//DTD SVG 1.1//EN" "http://www.w3.org/Graphics/SVG/1.1/DTD/svg11.dtd">
<svg version="1.1" id="Calque_1" xmlns="http://www.w3.org/2000/svg" xmlns:xlink="http://www.w3.org/1999/xlink" x="0px" y="0px"
	 width="4000px" height="4000px" viewBox="0 0 4000 4000" enable-background="new 0 0 4000 4000" xml:space="preserve">
<g>
	<path d="M2342.4,726.4c89.6-28.8,224-89.6,304-208c80-118.399,83.2-265.6,76.8-361.6c-3.2-57.601-54.399-89.601-108.8-73.601
		c-89.6,28.801-224,89.601-304,208c-80,118.4-83.2,265.601-76.8,361.601C2240,710.4,2288,742.4,2342.4,726.4z"/>
	<path d="M3129.6,1148.8c-150.399-192-384-288-656-262.4l0,0c-124.8,9.601-243.2,41.601-355.2,86.4
		c-48-377.601-185.6-803.2-521.6-844.8c-236.801-32-272,179.199-131.2,217.6C1747.2,422.4,1872,704,1920,985.6
		c-121.6-51.2-256-89.6-393.6-102.4c-272-25.6-505.6,73.601-656,262.4c-195.2,246.4-227.2,627.2-92.8,1043.199
		C995.2,2854.4,1395.2,3196.8,1846.4,3104c51.2-9.601,102.4-28.801,153.6-51.2c54.4,25.6,105.601,41.6,153.601,51.2
		c48,9.6,96,16,144,16c390.399,0,729.6-336,924.8-928C3356.801,1772.8,3324.801,1395.199,3129.6,1148.8z M2979.2,2112
		c-64,198.399-310.399,835.199-771.2,742.399c-44.8-9.601-92.8-28.8-144-57.601c-19.199-9.6-41.6-16-60.8-16s-41.6,6.4-60.8,16
		c-54.4,28.801-99.2,48-144,57.601c-460.8,92.8-707.2-544-771.2-742.399c-115.2-332.801-96-627.2,44.8-806.4
		c96-124.8,246.4-179.2,435.2-166.4c156.8,12.801,304,57.601,428.8,134.4c41.601,25.6,92.801,25.6,131.2,0
		c124.8-73.6,272-121.6,428.8-134.4c185.601-12.8,336,44.801,432,166.4C3068.801,1484.8,3088,1779.199,2979.2,2112z"/>
</g>
</svg>
