<?xml version="1.0" encoding="utf-8"?>
<!-- Generator: Adobe Illustrator 15.1.0, SVG Export Plug-In . SVG Version: 6.00 Build 0)  -->
<!DOCTYPE svg PUBLIC "-//W3C//DTD SVG 1.1//EN" "http://www.w3.org/Graphics/SVG/1.1/DTD/svg11.dtd">
<svg version="1.1" id="Calque_1" xmlns="http://www.w3.org/2000/svg" xmlns:xlink="http://www.w3.org/1999/xlink" x="0px" y="0px"
	 width="4000px" height="4000px" viewBox="0 0 4000 4000" enable-background="new 0 0 4000 4000" xml:space="preserve">
<g>
	<path d="M2947.801,2063.199c-30.5-149.95-177.6-243.199-335.25-212.75c-37.4,7.3-72,22.25-103,42.601
		c-80.2-482.5-373.7-940-834.5-1296.3l-61.15,79.1c191.7,148.25,352.6,314.6,480.05,492.7c-4.899,491.1-197.5,737.85-415.75,921.399
		c-22-39.399-52.8-73.6-91-99.25c-66.6-44.85-144.55-61.4-219.3-46.55c-69.7,13.85-129.95,54.45-169.6,114.25l41.699,27.65
		l-41.699-27.601c-161.15,243.55-120.801,516.851,98.1,664.55c74.95,50.551,159.75,76.801,245,76.801c27,0,54.05-2.65,80.9-8
		c126.149-25.101,237.149-105.25,321.05-231.95c84.399-127.55,46.399-297.75-86.65-387.5c-24.1-16.25-50.35-29-77.6-37.5
		c199.7-176.5,372.35-410.4,408-824.101c114.35,192.25,190.649,395.7,224.499,603.75c-38.549-8.449-78.6-9.6-118.149-1.95
		c-78.8,15.351-145.55,58.75-187.95,122.15c-39.5,59.1-53.35,130.35-39.1,200.75l49-9.95l-48.95,9.95
		c51.25,251.8,229.101,409.5,447.601,409.5c29.899,0,60.5-2.95,91.649-9c116.851-22.75,215.95-87.3,279.101-181.8
		C2956.301,2347.199,2978.1,2212,2947.801,2063.199z M1859.95,2504.699c-68.8,103.851-157.75,169.25-257.2,189.051
		c-85.25,16.8-174-2.15-250.5-53.65c-173.199-116.9-201.55-328.45-70.6-526.4l0,0c25.15-38,61.7-62.699,105.65-71.449
		c48.399-9.45,99.6,1.449,143.949,31.399c39.351,26.45,67.25,66.25,78.65,112.25c3,14.8,12.6,27.8,26.65,34.8
		c10.199,5.101,21.649,6.5,32.449,4.25c45.7-6.7,92.65,3.95,131.7,30.3C1887.75,2313.9,1913.7,2423.5,1859.95,2504.699z
		 M2801.65,2398.65c-48.199,72.101-124.55,121.6-215.05,139.2c-205.2,39.649-374.8-89.7-422.2-322.3h0.051
		c-9.101-44.65-0.75-88,24.199-125.25c27.45-41.101,71.45-69.4,123.95-79.601c47-9.25,95.55-0.5,136.399,24.7
		c22.25,13.7,51.351,7.9,66.701-13.25c27.75-38.3,68.949-64.399,116-73.6c102.899-20,198.75,39.1,218.149,134.5
		C2874.65,2205.199,2858,2314.35,2801.65,2398.65z"/>
	<path d="M2703.95,703.699l4.5-58.199l-58.2,4.5c-308.199,23.75-396.199,273.35-399.699,402l-1.4,52.8l52.801-1.4
		C2430.551,1099.85,2680.201,1011.85,2703.95,703.699z M2594.801,759.05c-37,161.7-159.9,216.5-235.25,234.95
		C2377.7,918.65,2432.1,796,2594.801,759.05z"/>
	<path d="M2256.85,2126.949c-34.149,55.2-34.5,128.2-1.05,195.25l89.45-44.75c-17.9-35.8-19.15-72.399-3.351-97.949
		c12-19.45,32.3-29.7,58.65-29.7v-100C2339.5,2049.85,2287.1,2078,2256.85,2126.949z"/>
	<path d="M1409.65,2116.35c-63.25,14.95-115.1,66.3-138.75,137.35l94.8,31.65c12.7-38,37.7-64.75,66.9-71.65
		c22.3-5.199,43.85,1.851,62.45,20.45l70.699-70.7C1522.6,2120.3,1465.7,2103.35,1409.65,2116.35z"/>
</g>
</svg>
