<?xml version="1.0" encoding="utf-8"?>
<!-- Generator: Adobe Illustrator 15.1.0, SVG Export Plug-In . SVG Version: 6.00 Build 0)  -->
<!DOCTYPE svg PUBLIC "-//W3C//DTD SVG 1.1//EN" "http://www.w3.org/Graphics/SVG/1.1/DTD/svg11.dtd">
<svg version="1.1"
	 id="Calque_1" xmlns:dc="http://purl.org/dc/elements/1.1/" xmlns:cc="http://creativecommons.org/ns#" xmlns:svg="http://www.w3.org/2000/svg" xmlns:sodipodi="http://sodipodi.sourceforge.net/DTD/sodipodi-0.dtd" xmlns:rdf="http://www.w3.org/1999/02/22-rdf-syntax-ns#" xmlns:inkscape="http://www.inkscape.org/namespaces/inkscape"
	 xmlns="http://www.w3.org/2000/svg" xmlns:xlink="http://www.w3.org/1999/xlink" x="0px" y="0px" width="4000px" height="4000px"
	 viewBox="0 0 4000 4000" enable-background="new 0 0 4000 4000" xml:space="preserve">
<g transform="translate(0,-952.36218)">
	<path d="M1999.824,1496.368c-19.654,0.352-39.615,7.355-59,20l-1216,960c-31.236,31.014-53.195,97.799-21,138.998
		c32.196,41.203,99.91,46.73,139,12l1157-912.998l1156.998,912.998c39.092,34.73,108.234,30.279,139.002-12
		c26.998-37.094,20.353-108.076-20.998-138.998l-443.002-350v-534c-0.005-53.018-42.982-95.994-96-96h-256
		c-53.017,0.006-95.994,42.982-96,96v181l-325-257C2038.828,1502.315,2019.479,1496.017,1999.824,1496.368L1999.824,1496.368z
		 M2575.824,1688.368h64v287l-64-51V1688.368z M1231.824,2433.366l-192,152v927c0.006,53.016,42.983,95.996,96,96h608
		c53.018-0.004,95.995-42.984,96-96v-384c0-90.301,69.699-160,160-160s160,69.699,160,160v384c0.006,53.016,42.983,95.996,96,96h608
		c53.018-0.004,95.995-42.984,96-96v-927.002l-192-152v983.002h-416v-288c0-193.348-158.652-352-352-352s-352,158.652-352,352v288
		h-416v-983.002V2433.366z"/>
</g>
</svg>
