<?xml version="1.0" encoding="utf-8"?>
<!-- Generator: Adobe Illustrator 15.1.0, SVG Export Plug-In . SVG Version: 6.00 Build 0)  -->
<!DOCTYPE svg PUBLIC "-//W3C//DTD SVG 1.1//EN" "http://www.w3.org/Graphics/SVG/1.1/DTD/svg11.dtd">
<svg version="1.1"
	 id="Calque_1" xmlns:dc="http://purl.org/dc/elements/1.1/" xmlns:cc="http://creativecommons.org/ns#" xmlns:svg="http://www.w3.org/2000/svg" xmlns:sodipodi="http://sodipodi.sourceforge.net/DTD/sodipodi-0.dtd" xmlns:rdf="http://www.w3.org/1999/02/22-rdf-syntax-ns#" xmlns:inkscape="http://www.inkscape.org/namespaces/inkscape"
	 xmlns="http://www.w3.org/2000/svg" xmlns:xlink="http://www.w3.org/1999/xlink" x="0px" y="0px" width="4000px" height="4000px"
	 viewBox="0 0 4000 4000" enable-background="new 0 0 4000 4000" xml:space="preserve">
<path d="M2492.48,37.5c-290,0-529.961,222.48-559.961,504.98c-242.5,32.5-432.52,245.02-432.52,495.02v29.98
	c0,195-75.01,390.01-210.01,547.51c-152.5,175-232.49,400.019-227.49,632.52c10,504.999,432.5,917.48,937.5,917.48h10.01
	c512.5-5,927.49-425,927.49-937.5c0-227.5-82.52-444.99-232.52-614.99c-132.5-155-204.98-347.52-204.98-545.02V1050
	c0-262.5-192.48-477.52-442.48-507.52c30-215,212.461-379.98,434.961-379.98c35,0,62.5-27.5,62.5-62.5S2524.98,37.5,2492.48,37.5z
	 M1992.48,662.5h7.52c202.5,0,375,177.5,375,387.5v17.48c0,227.5,85,450,237.5,625c130,147.5,200,337.519,200,532.52
	c0,442.499-359.98,807.5-804.98,812.5H2000c-437.5,0-802.5-357.52-812.5-795.02c-5-200,65.01-394.962,197.51-547.461
	c155-180,239.99-402.539,239.99-627.539v-29.98C1625,835,1789.98,667.5,1992.48,662.5z M1812.5,975c-35,0-62.5,27.5-62.5,62.5v29.98
	c0,255-97.52,507.51-270.02,710.01c-110,127.499-169.98,292.499-167.48,462.5c0,35,27.5,60.01,62.5,60.01h2.49
	c35,0,62.51-29.99,60.01-64.99c-2.5-140,45.01-272.491,135.01-377.49c195-225,302.49-507.529,302.49-792.529v-29.98
	C1875,1002.51,1847.5,975,1812.5,975z"/>
</svg>
