<?xml version="1.0" encoding="utf-8"?><!DOCTYPE svg PUBLIC "-//W3C//DTD SVG 1.1//EN" "http://www.w3.org/Graphics/SVG/1.1/DTD/svg11.dtd"><svg xmlns="http://www.w3.org/2000/svg" xmlns:xlink="http://www.w3.org/1999/xlink"><symbol viewBox="0 0 4000 4000" id="Apple" xmlns="http://www.w3.org/2000/svg"><path d="M2342.4 726.4c89.6-28.8 224-89.6 304-208 80-118.399 83.2-265.6 76.8-361.6-3.2-57.601-54.399-89.601-108.8-73.601-89.6 28.801-224 89.601-304 208-80 118.4-83.2 265.601-76.8 361.601 6.4 57.6 54.4 89.6 108.8 73.6z"/><path d="M3129.6 1148.8c-150.399-192-384-288-656-262.4-124.8 9.601-243.2 41.601-355.2 86.4-48-377.601-185.6-803.2-521.6-844.8-236.801-32-272 179.199-131.2 217.6 281.6 76.8 406.4 358.4 454.4 640-121.6-51.2-256-89.6-393.6-102.4-272-25.6-505.6 73.601-656 262.4-195.2 246.4-227.2 627.2-92.8 1043.199C995.2 2854.4 1395.2 3196.8 1846.4 3104c51.2-9.601 102.4-28.801 153.6-51.2 54.4 25.6 105.601 41.6 153.601 51.2 48 9.6 96 16 144 16 390.399 0 729.6-336 924.8-928 134.4-419.2 102.4-796.801-92.801-1043.2zM2979.2 2112c-64 198.399-310.399 835.199-771.2 742.399-44.8-9.601-92.8-28.8-144-57.601-19.199-9.6-41.6-16-60.8-16s-41.6 6.4-60.8 16c-54.4 28.801-99.2 48-144 57.601-460.8 92.8-707.2-544-771.2-742.399-115.2-332.801-96-627.2 44.8-806.4 96-124.8 246.4-179.2 435.2-166.4 156.8 12.801 304 57.601 428.8 134.4 41.601 25.6 92.801 25.6 131.2 0 124.8-73.6 272-121.6 428.8-134.4 185.601-12.8 336 44.801 432 166.4 140.801 179.2 160 473.599 51.2 806.4z"/></symbol><symbol viewBox="0 0 4000 4000" id="Cherry" xmlns="http://www.w3.org/2000/svg"><path d="M2947.801 2063.199c-30.5-149.95-177.6-243.199-335.25-212.75-37.4 7.3-72 22.25-103 42.601-80.2-482.5-373.7-940-834.5-1296.3l-61.15 79.1c191.7 148.25 352.6 314.6 480.05 492.7-4.899 491.1-197.5 737.85-415.75 921.399-22-39.399-52.8-73.6-91-99.25-66.6-44.85-144.55-61.4-219.3-46.55-69.7 13.85-129.95 54.45-169.6 114.25l41.699 27.65-41.699-27.601c-161.15 243.55-120.801 516.851 98.1 664.55 74.95 50.551 159.75 76.801 245 76.801 27 0 54.05-2.65 80.9-8 126.149-25.101 237.149-105.25 321.05-231.95 84.399-127.55 46.399-297.75-86.65-387.5-24.1-16.25-50.35-29-77.6-37.5 199.7-176.5 372.35-410.4 408-824.101 114.35 192.25 190.649 395.7 224.499 603.75-38.549-8.449-78.6-9.6-118.149-1.95-78.8 15.351-145.55 58.75-187.95 122.15-39.5 59.1-53.35 130.35-39.1 200.75l49-9.95-48.95 9.95c51.25 251.8 229.101 409.5 447.601 409.5 29.899 0 60.5-2.95 91.649-9 116.851-22.75 215.95-87.3 279.101-181.8 71.499-106.949 93.298-242.148 62.999-390.949zm-1087.851 441.5c-68.8 103.851-157.75 169.25-257.2 189.051-85.25 16.8-174-2.15-250.5-53.65-173.199-116.9-201.55-328.45-70.6-526.4 25.15-38 61.7-62.699 105.65-71.449 48.399-9.45 99.6 1.449 143.949 31.399 39.351 26.45 67.25 66.25 78.65 112.25 3 14.8 12.6 27.8 26.65 34.8 10.199 5.101 21.649 6.5 32.449 4.25 45.7-6.7 92.65 3.95 131.7 30.3 87.052 58.65 113.002 168.25 59.252 249.449zm941.7-106.049c-48.199 72.101-124.55 121.6-215.05 139.2-205.2 39.649-374.8-89.7-422.2-322.3h.051c-9.101-44.65-.75-88 24.199-125.25 27.45-41.101 71.45-69.4 123.95-79.601 47-9.25 95.55-.5 136.399 24.7 22.25 13.7 51.351 7.9 66.701-13.25 27.75-38.3 68.949-64.399 116-73.6 102.899-20 198.75 39.1 218.149 134.5 24.801 122.15 8.151 231.301-48.199 315.601zM2703.95 703.699l4.5-58.199-58.2 4.5c-308.199 23.75-396.199 273.35-399.699 402l-1.4 52.8 52.801-1.4c128.599-3.55 378.249-91.55 401.998-399.701zm-109.149 55.351c-37 161.7-159.9 216.5-235.25 234.95 18.149-75.35 72.549-198 235.25-234.95z"/><path d="M2256.85 2126.949c-34.149 55.2-34.5 128.2-1.05 195.25l89.45-44.75c-17.9-35.8-19.15-72.399-3.351-97.949 12-19.45 32.3-29.7 58.65-29.7v-100c-61.049.05-113.449 28.2-143.699 77.149zM1409.65 2116.35c-63.25 14.95-115.1 66.3-138.75 137.35l94.8 31.65c12.7-38 37.7-64.75 66.9-71.65 22.3-5.199 43.85 1.851 62.45 20.45l70.699-70.7c-43.149-43.15-100.049-60.1-156.099-47.1z"/></symbol><symbol viewBox="0 0 4000 4000" id="Home" xmlns="http://www.w3.org/2000/svg"><path d="M1999.824 544.006c-19.654.352-39.615 7.355-59 20l-1216 960c-31.236 31.014-53.195 97.799-21 138.998 32.196 41.203 99.91 46.73 139 12l1157-912.998 1156.998 912.998c39.092 34.73 108.234 30.279 139.002-12 26.998-37.094 20.353-108.076-20.998-138.998l-443.002-350v-534c-.005-53.018-42.982-95.994-96-96h-256c-53.017.006-95.994 42.982-96 96v181l-325-257c-19.996-14.053-39.345-20.351-59-20zm576 192h64v287l-64-51v-236zm-1344 744.998l-192 152v927c.006 53.016 42.983 95.996 96 96h608c53.018-.004 95.995-42.984 96-96v-384c0-90.301 69.699-160 160-160s160 69.699 160 160v384c.006 53.016 42.983 95.996 96 96h608c53.018-.004 95.995-42.984 96-96v-927.002l-192-152v983.002h-416v-288c0-193.348-158.652-352-352-352s-352 158.652-352 352v288h-416v-983.002.002z"/></symbol><symbol viewBox="0 0 4000 4000" id="Perry" xmlns="http://www.w3.org/2000/svg"><path d="M2492.48 37.5c-290 0-529.961 222.48-559.961 504.98-242.5 32.5-432.52 245.02-432.52 495.02v29.98c0 195-75.01 390.01-210.01 547.51-152.5 175-232.49 400.019-227.49 632.52 10 504.999 432.5 917.48 937.5 917.48h10.01c512.5-5 927.49-425 927.49-937.5 0-227.5-82.52-444.99-232.52-614.99-132.5-155-204.98-347.52-204.98-545.02V1050c0-262.5-192.48-477.52-442.48-507.52 30-215 212.461-379.98 434.961-379.98 35 0 62.5-27.5 62.5-62.5s-30-62.5-62.5-62.5zm-500 625h7.52c202.5 0 375 177.5 375 387.5v17.48c0 227.5 85 450 237.5 625 130 147.5 200 337.519 200 532.52 0 442.499-359.98 807.5-804.98 812.5H2000c-437.5 0-802.5-357.52-812.5-795.02-5-200 65.01-394.962 197.51-547.461 155-180 239.99-402.539 239.99-627.539v-29.98c0-202.5 164.98-370 367.48-375zM1812.5 975c-35 0-62.5 27.5-62.5 62.5v29.98c0 255-97.52 507.51-270.02 710.01-110 127.499-169.98 292.499-167.48 462.5 0 35 27.5 60.01 62.5 60.01h2.49c35 0 62.51-29.99 60.01-64.99-2.5-140 45.01-272.491 135.01-377.49 195-225 302.49-507.529 302.49-792.529v-29.98c0-32.501-27.5-60.011-62.5-60.011z"/></symbol></svg>